<svg xmlns="http://www.w3.org/2000/svg" viewBox="0 0 1200 760"><defs><linearGradient id="g" x1="0" x2="1"><stop stop-color="#8b5cf6"/><stop offset="1" stop-color="#22d3ee"/></linearGradient></defs><rect width="1200" height="760" fill="#050505"/><g stroke="#8b5cf6" opacity=".18"><path d="M80 0 V760"/><path d="M165 0 V760"/><path d="M250 0 V760"/><path d="M335 0 V760"/><path d="M420 0 V760"/><path d="M505 0 V760"/><path d="M590 0 V760"/><path d="M675 0 V760"/><path d="M760 0 V760"/><path d="M845 0 V760"/><path d="M930 0 V760"/><path d="M1015 0 V760"/><path d="M1100 0 V760"/></g><circle cx="820" cy="380" r="190" fill="none" stroke="url(#g)" stroke-width="3"/><circle cx="820" cy="380" r="110" fill="none" stroke="#22d3ee" opacity=".55"/><circle cx="820" cy="380" r="12" fill="#22d3ee"/><path d="M620 380 H1020 M820 180 V580" stroke="#f2f2ee" opacity=".2"/><text x="70" y="105" fill="#f2f2ee" font-family="Arial" font-size="24" letter-spacing="7">NEXA / CONCEPT 018</text><text x="70" y="245" fill="#f2f2ee" font-family="Arial" font-size="108" font-weight="700">AXIOMA</text><text x="76" y="285" fill="#22d3ee" font-family="Arial" font-size="18" letter-spacing="4">KNOWLEDGE · TIME · CIVILIZATION</text><text x="735" y="650" fill="#8b5cf6" font-family="Arial" font-size="14" letter-spacing="4">MODEL / 01 / 18</text></svg>