<svg xmlns="http://www.w3.org/2000/svg" viewBox="0 0 1000 700"><rect width="1000" height="700" fill="#F2F2EE"/><text x="60" y="70" fill="#101114" font-family="Arial" font-size="14" letter-spacing="4">SIGNAL / COMMUNICATION REPORT</text><text x="60" y="145" fill="#101114" font-family="Arial" font-size="54" font-weight="700">Clarity in the data.</text><text x="60" y="178" fill="#5F6268" font-family="Arial" font-size="16">A precise editorial layer for complex information.</text><line x1="60" y1="220" x2="940" y2="220" stroke="#C9CAC5"/><g font-family="Arial"><text x="60" y="270" fill="#777B84" font-size="11">KEY FINDING</text><text x="60" y="312" fill="#101114" font-size="28" font-weight="700">+18.4%</text><text x="60" y="340" fill="#5F6268" font-size="13">weekly interaction</text><text x="300" y="270" fill="#777B84" font-size="11">BASE</text><text x="300" y="312" fill="#101114" font-size="28" font-weight="700">84.2K</text><text x="300" y="340" fill="#5F6268" font-size="13">total reach</text><text x="540" y="270" fill="#777B84" font-size="11">INDEX</text><text x="540" y="312" fill="#101114" font-size="28" font-weight="700">92/100</text><text x="540" y="340" fill="#5F6268" font-size="13">signal quality</text></g><rect x="60" y="385" width="560" height="240" fill="#101114"/><g stroke="#30333A"><path d="M90 580H590M90 530H590M90 480H590M90 430H590"/></g><polyline points="90,550 155,525 220,540 285,480 350,495 415,450 480,465 545,415 590,430" fill="none" stroke="#22D3EE" stroke-width="4"/><g fill="#F2F2EE" font-family="Arial" font-size="10"><text x="90" y="605">MON</text><text x="250" y="605">WED</text><text x="410" y="605">FRI</text><text x="550" y="605">SUN</text></g><rect x="660" y="385" width="280" height="240" fill="#D9FF00"/><text x="690" y="425" fill="#101114" font-family="Arial" font-size="12">SIGNAL PRINCIPLE</text><text x="690" y="470" fill="#101114" font-family="Arial" font-size="25" font-weight="700">Measure.</text><text x="690" y="505" fill="#101114" font-family="Arial" font-size="25" font-weight="700">Interpret.</text><text x="690" y="540" fill="#101114" font-family="Arial" font-size="25" font-weight="700">Communicate.</text></svg>